<mxGraphModel dx="0" dy="0" grid="1" gridSize="10" guides="1" tooltips="1" connect="1" arrows="1" fold="1" page="0" pageScale="1" background="none" math="0" shadow="0">
  <root>
    <mxCell id="0" />
    <mxCell id="1" parent="0" />
    <mxCell id="node1" parent="1" vertex="1" value="&lt;p style=&quot;margin:0px;margin-top:4px;text-align:center;&quot;&gt;&lt;b&gt;data_structures.data_collection.DataCollection&lt;/b&gt;&lt;/p&gt;&lt;hr size=&quot;1&quot;/&gt;&lt;p style=&quot;margin:0 0 0 4px;line-height:1.6;&quot;&gt; _data: &lt;br/&gt; _name: &lt;br/&gt; data: &lt;br/&gt; name: &lt;br/&gt; _single_value_cols: &lt;/p&gt;&lt;hr size=&quot;1&quot;/&gt;&lt;p style=&quot;margin:0 0 0 4px;line-height:1.6;&quot;&gt; __init__(             self,             data: T | None,             name: str = &amp;#39;&amp;#39;     ): &lt;br/&gt; name(self): &lt;br/&gt; name(self, name: str): &lt;br/&gt; data(self): &lt;br/&gt; data(self, data: T): &lt;br/&gt; single_value_cols(self): &lt;br/&gt; single_value_cols(self, cols: dict[str, Any]): &lt;br/&gt; n_single_value_cols(self): &lt;br/&gt; n_rows(self): &lt;br/&gt; n_cols(self): &lt;br/&gt; col_names(self): &lt;br/&gt; filter_rows_by_col_value(self: T, col_name: str, col_value: Any): &lt;br/&gt; min_filter(self: T, col_name: str, min_value: Any): &lt;br/&gt; max_filter(self: T, col_name: str, max_value: Any): &lt;br/&gt; find_single_value_cols(self): &lt;br/&gt; drop_single_value_cols(self): &lt;br/&gt; has_no_data(self, verbose: bool = True): &lt;br/&gt; has_data(self): &lt;br/&gt; to_string(self): &lt;/p&gt;" style="verticalAlign=top;align=left;overflow=fill;fontSize=14;fontFamily=Helvetica;html=1;rounded=0;shadow=0;comic=0;labelBackgroundColor=none;strokeWidth=1;">
      <mxGeometry x="-770" y="75" width="359" height="635" as="geometry" />
    </mxCell>
    <mxCell id="node8" parent="1" vertex="1" value="&lt;p style=&quot;margin:0px;margin-top:4px;text-align:center;&quot;&gt;&lt;b&gt;data_structures.data_frame_column_operations.DataFrameColumnOperations&lt;/b&gt;&lt;/p&gt;&lt;hr size=&quot;1&quot;/&gt;&lt;p style=&quot;margin:0 0 0 4px;line-height:1.6;&quot;&gt; get_col_type(self, col_name: str): &lt;br/&gt; get_col_index_by_col_name(self, col_name: str): &lt;br/&gt; add_empty_int_cols(self, col_names: list[str]): &lt;br/&gt; add_empty_float_cols(self, col_names: list[str]): &lt;br/&gt; add_empty_str_cols(self, col_names: list[str]): &lt;br/&gt; add_empty_bool_cols(self, col_names: list[str]): &lt;br/&gt; add_column(             self,             data: Any | None = None,             col_name: str = &amp;#39;&amp;#39;     ): &lt;br/&gt; are_cols_identical(             self,             col_name: str,             other: MyDataFrame,             other_col_name: str     ): &lt;br/&gt; assign_dtypes(self, col_type_map: Dict[str, type]): &lt;br/&gt; merge(self, other: MyDataFrame | DataFrame | Chunk): &lt;br/&gt; merge_transposed(self, other: MyDataFrame): &lt;br/&gt; find_identical_cols(self, other: DataFrame): &lt;br/&gt; drop_column(self, col_name: str): &lt;br/&gt; drop_columns(self, col_names: List[str]): &lt;br/&gt; extract_columns(self, col_names: List[str]): &lt;br/&gt; extract_columns_by_name_substring(self, substring: str): &lt;br/&gt; get_col_names_by_substring(self, substring: str): &lt;br/&gt; _check_indices(self, other: DataFrame): &lt;/p&gt;" style="verticalAlign=top;align=left;overflow=fill;fontSize=14;fontFamily=Helvetica;html=1;rounded=0;shadow=0;comic=0;labelBackgroundColor=none;strokeWidth=1;">
      <mxGeometry x="-2864" y="1215" width="574" height="484" as="geometry" />
    </mxCell>
    <mxCell id="node11" parent="1" vertex="1" value="&lt;p style=&quot;margin:0px;margin-top:4px;text-align:center;&quot;&gt;&lt;b&gt;data_structures.data_frame_factory.DataFrameFactory&lt;/b&gt;&lt;/p&gt;&lt;hr size=&quot;1&quot;/&gt;&lt;p style=&quot;margin:0 0 0 4px;line-height:1.6;&quot;&gt; create(             data: DictOfLists |                   List[List[int | float | str]] |                   List[Dict[str, int | float | str]] |                   List[int | float | str] |                   DataFrame |                   OrderedDictOfLists |                   Tuple[Any, Any] |                   None,             col_names: list[str] | None = None,             row_names: list[str] | None = None,             index_column: str | None = None     ): &lt;br/&gt; check_column_names(data: Any, col_names: list[str]): &lt;br/&gt; _check_for_auto_col_identifiers(col_names: list[str | int]): &lt;br/&gt; check_custom_col_names(             existing_col_names: list[str],             col_names: list[str]): &lt;/p&gt;" style="verticalAlign=top;align=left;overflow=fill;fontSize=14;fontFamily=Helvetica;html=1;rounded=0;shadow=0;comic=0;labelBackgroundColor=none;strokeWidth=1;">
      <mxGeometry x="-1178" y="803" width="408" height="145" as="geometry" />
    </mxCell>
    <mxCell id="node7" parent="1" vertex="1" value="&lt;p style=&quot;margin:0px;margin-top:4px;text-align:center;&quot;&gt;&lt;b&gt;data_structures.data_frame_field_operations.DataFrameFieldOperations&lt;/b&gt;&lt;/p&gt;&lt;hr size=&quot;1&quot;/&gt;&lt;p style=&quot;margin:0 0 0 4px;line-height:1.6;&quot;&gt; set_field_value(             self,             row_identifier: str | int,             col_identifier: str | int,             value: str | int     ): &lt;br/&gt; get_field_value(             self,             row_identifier: str | int,             col_identifier: str | int     ): &lt;/p&gt;" style="verticalAlign=top;align=left;overflow=fill;fontSize=14;fontFamily=Helvetica;html=1;rounded=0;shadow=0;comic=0;labelBackgroundColor=none;strokeWidth=1;">
      <mxGeometry x="-2439" y="1933" width="530" height="91" as="geometry" />
    </mxCell>
    <mxCell id="node5" parent="1" vertex="1" value="&lt;p style=&quot;margin:0px;margin-top:4px;text-align:center;&quot;&gt;&lt;b&gt;data_structures.data_frame_operations.DataFrameOperations&lt;/b&gt;&lt;/p&gt;&lt;hr size=&quot;1&quot;/&gt;&lt;p style=&quot;margin:0 0 0 4px;line-height:1.6;&quot;&gt; logger: &lt;br/&gt; my_df: &lt;/p&gt;&lt;hr size=&quot;1&quot;/&gt;&lt;p style=&quot;margin:0 0 0 4px;line-height:1.6;&quot;&gt; __init__(             self,             my_dataframe: MyDataFrame     ): &lt;br/&gt; do(self, operation, **kwargs): &lt;br/&gt; normalize_row_id(self, row_identifier: str | int): &lt;br/&gt; normalize_col_id(self, col_identifier: str | int): &lt;/p&gt;" style="verticalAlign=top;align=left;overflow=fill;fontSize=14;fontFamily=Helvetica;html=1;rounded=0;shadow=0;comic=0;labelBackgroundColor=none;strokeWidth=1;">
      <mxGeometry x="-2404" y="849" width="460" height="185" as="geometry" />
    </mxCell>
    <mxCell id="node10" parent="1" vertex="1" value="&lt;p style=&quot;margin:0px;margin-top:4px;text-align:center;&quot;&gt;&lt;b&gt;data_structures.data_frame_row_operations.DataFrameRowOperations&lt;/b&gt;&lt;/p&gt;&lt;hr size=&quot;1&quot;/&gt;&lt;p style=&quot;margin:0 0 0 4px;line-height:1.6;&quot;&gt; shuffle(self): &lt;br/&gt; reduce_n_rows(self, max_n_rows: int): &lt;br/&gt; get_row_df_by_name(self, row_name: str): &lt;br/&gt; get_row_series_by_name(self, row_name: str): &lt;br/&gt; get_row_df_by_index(self, row_index: int): &lt;br/&gt; get_row_series_by_index(self, row_index: int): &lt;br/&gt; extract_rows_by_col_value(             self,             col_name: str,             col_value: Any,             op: Callable[[Any, Any], bool] = operator.eq      ): &lt;br/&gt; extract_rows_by_other_indices(self, other: MyDataFrame): &lt;br/&gt; add_empty_row(self): &lt;br/&gt; add_rows(             self,             data: MyDataFrame |                   DataFrame |                   DictOfLists |                   List[List[int | float | str]] |                   List[Dict[str, int | float | str]] |                   List[int | float | str] |                   None = None,             ignore_index: bool = True     ): &lt;br/&gt; join(self, my_df_lst: List[MyDataFrame]): &lt;br/&gt; get_row_index_by_row_name(self, row_name: str): &lt;br/&gt; check_indices(self, other: DataFrame): &lt;br/&gt; has_rows_intersection_with(self, other: DataFrame): &lt;br/&gt; get_missing_indices(self, other: DataFrame): &lt;br/&gt; get_additional_row_indices(self, other: DataFrame): &lt;br/&gt; row_index_is_subset_of(self, other: DataFrame): &lt;br/&gt; row_index_is_superset_of(self, other: DataFrame): &lt;br/&gt; _append_rows(             self,             other: DataFrame | MyDataFrame,             ignore_index: bool = True     ): &lt;br/&gt; _validate_new_row_data(             self,             data: MyDataFrame | DataFrame | dict | list | tuple | None =             None     ): &lt;br/&gt; _check_data_types(             self,             data: DataFrame | dict | list | tuple     ): &lt;br/&gt; _check_n_cols(             self,             data: DataFrame     ): &lt;br/&gt; _check_keys(             self,             data: DataFrame | dict | list     ): &lt;br/&gt; _check_keys_of_list_of_dicts(             self,             data: List[Dict[str, int | float | str]]     ): &lt;br/&gt; _check_shapes_of_list_of_lists(             self,             data: List[List[int | float | str]]     ): &lt;/p&gt;" style="verticalAlign=top;align=left;overflow=fill;fontSize=14;fontFamily=Helvetica;html=1;rounded=0;shadow=0;comic=0;labelBackgroundColor=none;strokeWidth=1;">
      <mxGeometry x="-2106" y="1215" width="525" height="674" as="geometry" />
    </mxCell>
    <mxCell id="node2" parent="1" vertex="1" value="&lt;p style=&quot;margin:0px;margin-top:4px;text-align:center;&quot;&gt;&lt;b&gt;data_structures.my_data.MyData&lt;/b&gt;&lt;/p&gt;&lt;hr size=&quot;1&quot;/&gt;&lt;p style=&quot;margin:0 0 0 4px;line-height:1.6;&quot;&gt; data: &lt;br/&gt; logger: &lt;br/&gt; source: &lt;br/&gt; single_value_cols: &lt;br/&gt; TEXT_COLUMN_NAME: &lt;br/&gt; LENGTH_COLUMN_NAME: &lt;br/&gt; SENTENCE_COUNT_COLUMN_NAME: &lt;br/&gt; WORD_COUNT_COLUMN_NAME: &lt;br/&gt; DATA_STR: &lt;/p&gt;&lt;hr size=&quot;1&quot;/&gt;&lt;p style=&quot;margin:0 0 0 4px;line-height:1.6;&quot;&gt; __init__(             self,             data: MyDataFrame | None = None,             name: str = &amp;#39;&amp;#39;,             source: str = &amp;#39;&amp;#39;     ): &lt;br/&gt; my_df(self): &lt;br/&gt; my_df(self, my_df: MyDataFrame): &lt;br/&gt; n_rows(self): &lt;br/&gt; n_cols(self): &lt;br/&gt; col_names(self): &lt;br/&gt; get_col(self, col_name: str): &lt;br/&gt; min_filter(self, col_name: str, min_value: Any): &lt;br/&gt; max_filter(self, col_name: str, max_value: Any): &lt;br/&gt; filter_rows_by_col_value(             self,             col_name: str,             col_value: Any,             op: Callable[[Any, Any], bool] = operator.eq     ): &lt;br/&gt; extract_mydata_columns(             self,             col_names: List[str],     ): &lt;br/&gt; get_unique_values(self, col_name: str): &lt;br/&gt; find_single_value_cols(self): &lt;br/&gt; drop_single_value_cols(self): &lt;br/&gt; add_text_length_column(self): &lt;br/&gt; add_sentiment_value_column(             self,             sentiment_map: dict,             source_col: str,             target_col: str     ): &lt;br/&gt; add_sentence_count_column(self, tokenization_strategy_name: str = &amp;#39;&amp;#39;): &lt;br/&gt; add_word_count_column(self, tokenization_strategy_name=&amp;#39;&amp;#39;): &lt;br/&gt; use_data(self): &lt;br/&gt; has_no_data(self, verbose: bool = True): &lt;br/&gt; _get_my_df(self): &lt;br/&gt; _get_n_rows(self): &lt;br/&gt; _get_n_cols(self): &lt;br/&gt; _get_col_names(self): &lt;/p&gt;" style="verticalAlign=top;align=left;overflow=fill;fontSize=14;fontFamily=Helvetica;html=1;rounded=0;shadow=0;comic=0;labelBackgroundColor=none;strokeWidth=1;">
      <mxGeometry x="-868" y="1215" width="387" height="860" as="geometry" />
    </mxCell>
    <mxCell id="node9" parent="1" vertex="1" value="&lt;p style=&quot;margin:0px;margin-top:4px;text-align:center;&quot;&gt;&lt;b&gt;data_structures.my_data_frame.MyDataFrame&lt;/b&gt;&lt;/p&gt;&lt;hr size=&quot;1&quot;/&gt;&lt;p style=&quot;margin:0 0 0 4px;line-height:1.6;&quot;&gt; df: &lt;br/&gt; row_operations: &lt;br/&gt; data: &lt;br/&gt; _name: &lt;br/&gt; file_name: &lt;br/&gt; file_type: &lt;br/&gt; field_operations: &lt;br/&gt; logger: &lt;br/&gt; source: &lt;br/&gt; single_value_cols: &lt;br/&gt; col_operations: &lt;/p&gt;&lt;hr size=&quot;1&quot;/&gt;&lt;p style=&quot;margin:0 0 0 4px;line-height:1.6;&quot;&gt; __init__(             self,             data: DataFrame | None = None,             name: str = &amp;#39;&amp;#39;,             source: str = &amp;#39;&amp;#39;     ): &lt;br/&gt; __str__(self): &lt;br/&gt; df(self): &lt;br/&gt; df(self, df: DataFrame): &lt;br/&gt; name(self): &lt;br/&gt; name(self, name: str): &lt;br/&gt; col_names(self): &lt;br/&gt; index_column(self): &lt;br/&gt; index_column(self, index_column: str): &lt;br/&gt; row_index(self): &lt;br/&gt; row_index(self, index_col_name: str): &lt;br/&gt; n_cols(self): &lt;br/&gt; n_rows(self): &lt;br/&gt; copy(self): &lt;br/&gt; has_no_data(self, verbose: bool = True): &lt;br/&gt; transpose(self): &lt;br/&gt; do_with_row(self, operation: str, **kwargs): &lt;br/&gt; do_with_column(self, operation: str, **kwargs): &lt;br/&gt; do_with_field(self, operation: str, **kwargs): &lt;br/&gt; find_single_value_cols(self): &lt;br/&gt; drop_single_value_cols(self): &lt;br/&gt; min_filter(self: T, col_name: str, min_value: Any): &lt;br/&gt; max_filter(self: T, col_name: str, max_value: Any): &lt;br/&gt; filter_rows_by_col_value(self: T, col_name: str, col_value: Any): &lt;br/&gt; sorted(self, by_col: int | str = 0, asc: bool = True): &lt;/p&gt;" style="verticalAlign=top;align=left;overflow=fill;fontSize=14;fontFamily=Helvetica;html=1;rounded=0;shadow=0;comic=0;labelBackgroundColor=none;strokeWidth=1;">
      <mxGeometry x="-1352" y="1215" width="359" height="935" as="geometry" />
    </mxCell>
    <mxCell id="node6" parent="1" vertex="1" value="&lt;p style=&quot;margin:0px;margin-top:4px;text-align:center;&quot;&gt;&lt;b&gt;data_structures.my_dataframe_factory.MyDataFrameFactory&lt;/b&gt;&lt;/p&gt;&lt;hr size=&quot;1&quot;/&gt;&lt;p style=&quot;margin:0 0 0 4px;line-height:1.6;&quot;&gt; create(             data: Any | None = None,             col_names: list[str] | None = None,             row_names: list[str] | None = None,             index_column: str | None = None,             name: str = &amp;#39;&amp;#39;     ): &lt;br/&gt; create_chunk(             data: Any | None = None,             col_names: list[str] | None = None,             row_names: list[str] | None = None,             index_column: str | None = None,             name: str = &amp;#39;&amp;#39;     ): &lt;/p&gt;" style="verticalAlign=top;align=left;overflow=fill;fontSize=14;fontFamily=Helvetica;html=1;rounded=0;shadow=0;comic=0;labelBackgroundColor=none;strokeWidth=1;">
      <mxGeometry x="-1192" y="977" width="452" height="91" as="geometry" />
    </mxCell>
    <mxCell id="node4" parent="1" vertex="1" value="&lt;p style=&quot;margin:0px;margin-top:4px;text-align:center;&quot;&gt;&lt;b&gt;logging_mixin.LoggingMixin&lt;/b&gt;&lt;/p&gt;&lt;hr size=&quot;1&quot;/&gt;&lt;p style=&quot;margin:0 0 0 4px;line-height:1.6;&quot;&gt; logger: &lt;/p&gt;&lt;hr size=&quot;1&quot;/&gt;&lt;p style=&quot;margin:0 0 0 4px;line-height:1.6;&quot;&gt; log(cls, message: str, level: str = &amp;#39;info&amp;#39;, msg_id: str = &amp;#39;&amp;#39;): &lt;br/&gt; _log(self, message: str, level: str = &amp;#39;info&amp;#39;, msg_id: str = &amp;#39;&amp;#39;): &lt;br/&gt; _get_caller_name(): &lt;br/&gt; _is_disallowed(msg_id: str): &lt;/p&gt;" style="verticalAlign=top;align=left;overflow=fill;fontSize=14;fontFamily=Helvetica;html=1;rounded=0;shadow=0;comic=0;labelBackgroundColor=none;strokeWidth=1;">
      <mxGeometry x="-1500" y="-244" width="346" height="160" as="geometry" />
    </mxCell>
    <mxCell id="node0" parent="1" vertex="1" value="&lt;p style=&quot;margin:0px;margin-top:4px;text-align:center;&quot;&gt;&lt;b&gt;nlp.tokenization.tokenization_mixin.TokenizationMixin&lt;/b&gt;&lt;/p&gt;&lt;hr size=&quot;1&quot;/&gt;&lt;p style=&quot;margin:0 0 0 4px;line-height:1.6;&quot;&gt; sentence_tokenizer: &lt;br/&gt; word_tokenizer: &lt;br/&gt; DEFAULT_SENTENCE_STRATEGY: &lt;br/&gt; DEFAULT_WORD_STRATEGY: &lt;/p&gt;&lt;hr size=&quot;1&quot;/&gt;&lt;p style=&quot;margin:0 0 0 4px;line-height:1.6;&quot;&gt; sentence_tokenizer(self): &lt;br/&gt; sentence_tokenizer(self, tokenizer: SentenceTokenizer): &lt;br/&gt; word_tokenizer(self): &lt;br/&gt; word_tokenizer(self, tokenizer: WordTokenizer): &lt;br/&gt; set_word_tokenizer(self, tokenization_strategy_name: str = &amp;#39;&amp;#39;): &lt;br/&gt; set_sentence_tokenizer(self, tokenization_strategy_name: str = &amp;#39;&amp;#39;): &lt;/p&gt;" style="verticalAlign=top;align=left;overflow=fill;fontSize=14;fontFamily=Helvetica;html=1;rounded=0;shadow=0;comic=0;labelBackgroundColor=none;strokeWidth=1;">
      <mxGeometry x="-450" y="795" width="408" height="285" as="geometry" />
    </mxCell>
    <mxCell id="node3" parent="1" vertex="1" value="&lt;p style=&quot;margin:0px;margin-top:4px;text-align:center;&quot;&gt;&lt;b&gt;serialization.data_serialization_mixin.DataSerializationMixin&lt;/b&gt;&lt;/p&gt;&lt;hr size=&quot;1&quot;/&gt;&lt;p style=&quot;margin:0 0 0 4px;line-height:1.6;&quot;&gt; data: &lt;/p&gt;&lt;hr size=&quot;1&quot;/&gt;&lt;p style=&quot;margin:0 0 0 4px;line-height:1.6;&quot;&gt; auth_strategy(self): &lt;br/&gt; auth_strategy(             self,             value: AuthenticationStrategy | NoAuthenticationStrategy     ): &lt;br/&gt; source(self): &lt;br/&gt; source(self, value: str): &lt;br/&gt; file_type(self): &lt;br/&gt; file_type(self, value: str): &lt;br/&gt; file_name(self): &lt;br/&gt; file_name(self, value: str): &lt;br/&gt; sub_dir(self): &lt;br/&gt; sub_dir(self, value: str): &lt;br/&gt; original_file_name(self): &lt;br/&gt; serializer(self): &lt;br/&gt; serializer(self, strategy: SerializationStrategy): &lt;br/&gt; authenticate(self): &lt;br/&gt; save(self): &lt;br/&gt; delete(self): &lt;br/&gt; add_or_save(self): &lt;br/&gt; can_load(self): &lt;br/&gt; load(self): &lt;br/&gt; fetch(self): &lt;br/&gt; load_or_fetch_and_save(self): &lt;br/&gt; load_if_possible(self): &lt;br/&gt; _load(self): &lt;/p&gt;" style="verticalAlign=top;align=left;overflow=fill;fontSize=14;fontFamily=Helvetica;html=1;rounded=0;shadow=0;comic=0;labelBackgroundColor=none;strokeWidth=1;">
      <mxGeometry x="-1549" y="75" width="445" height="635" as="geometry" />
    </mxCell>
    <mxCell id="edge3" edge="1" value="" parent="1" source="node1" target="node4" style="html=1;rounded=1;edgeStyle=orthogonalEdgeStyle;dashed=0;startArrow=block;startSize=12;endArrow=none;strokeColor=#595959;exitX=0.500;exitY=0.000;exitDx=0;exitDy=0;entryX=0.500;entryY=1.000;entryDx=0;entryDy=0;">
      <mxGeometry width="50" height="50" relative="1" as="geometry">
        <Array as="points">
          <mxPoint x="-590" y="-24" />
          <mxPoint x="-1327" y="-24" />
        </Array>
      </mxGeometry>
    </mxCell>
    <mxCell id="edge9" edge="1" value="" parent="1" source="node8" target="node5" style="html=1;rounded=1;edgeStyle=orthogonalEdgeStyle;dashed=0;startArrow=block;startSize=12;endArrow=none;strokeColor=#595959;exitX=0.500;exitY=0.000;exitDx=0;exitDy=0;entryX=0.500;entryY=1.000;entryDx=0;entryDy=0;">
      <mxGeometry width="50" height="50" relative="1" as="geometry">
        <Array as="points">
          <mxPoint x="-2577" y="1124" />
          <mxPoint x="-2174" y="1124" />
        </Array>
      </mxGeometry>
    </mxCell>
    <mxCell id="edge11" edge="1" value="" parent="1" source="node11" target="node4" style="html=1;rounded=1;edgeStyle=orthogonalEdgeStyle;dashed=0;startArrow=block;startSize=12;endArrow=none;strokeColor=#595959;exitX=0.500;exitY=0.000;exitDx=0;exitDy=0;entryX=0.500;entryY=1.000;entryDx=0;entryDy=0;">
      <mxGeometry width="50" height="50" relative="1" as="geometry">
        <Array as="points">
          <mxPoint x="-974" y="-24" />
          <mxPoint x="-1327" y="-24" />
        </Array>
      </mxGeometry>
    </mxCell>
    <mxCell id="edge8" edge="1" value="" parent="1" source="node7" target="node5" style="html=1;rounded=1;edgeStyle=orthogonalEdgeStyle;dashed=0;startArrow=block;startSize=12;endArrow=none;strokeColor=#595959;exitX=0.500;exitY=0.000;exitDx=0;exitDy=0;entryX=0.500;entryY=1.000;entryDx=0;entryDy=0;">
      <mxGeometry width="50" height="50" relative="1" as="geometry">
        <Array as="points" />
      </mxGeometry>
    </mxCell>
    <mxCell id="edge7" edge="1" value="" parent="1" source="node5" target="node4" style="html=1;rounded=1;edgeStyle=orthogonalEdgeStyle;dashed=0;startArrow=block;startSize=12;endArrow=none;strokeColor=#595959;exitX=0.500;exitY=0.000;exitDx=0;exitDy=0;entryX=0.500;entryY=1.000;entryDx=0;entryDy=0;">
      <mxGeometry width="50" height="50" relative="1" as="geometry">
        <Array as="points">
          <mxPoint x="-2174" y="-24" />
          <mxPoint x="-1327" y="-24" />
        </Array>
      </mxGeometry>
    </mxCell>
    <mxCell id="edge6" edge="1" value="" parent="1" source="node10" target="node5" style="html=1;rounded=1;edgeStyle=orthogonalEdgeStyle;dashed=0;startArrow=block;startSize=12;endArrow=none;strokeColor=#595959;exitX=0.517;exitY=0.000;exitDx=0;exitDy=0;entryX=0.500;entryY=1.000;entryDx=0;entryDy=0;">
      <mxGeometry width="50" height="50" relative="1" as="geometry">
        <Array as="points">
          <mxPoint x="-1834" y="1125" />
          <mxPoint x="-2174" y="1125" />
        </Array>
      </mxGeometry>
    </mxCell>
    <mxCell id="edge1" edge="1" value="" parent="1" source="node2" target="node1" style="html=1;rounded=1;edgeStyle=orthogonalEdgeStyle;dashed=0;startArrow=block;startSize=12;endArrow=none;strokeColor=#595959;exitX=0.423;exitY=0.000;exitDx=0;exitDy=0;entryX=0.500;entryY=1.000;entryDx=0;entryDy=0;">
      <mxGeometry width="50" height="50" relative="1" as="geometry">
        <Array as="points">
          <mxPoint x="-705" y="1104" />
          <mxPoint x="-590" y="1104" />
        </Array>
      </mxGeometry>
    </mxCell>
    <mxCell id="edge0" edge="1" value="" parent="1" source="node2" target="node0" style="html=1;rounded=1;edgeStyle=orthogonalEdgeStyle;dashed=0;startArrow=block;startSize=12;endArrow=none;strokeColor=#595959;exitX=0.849;exitY=0.002;exitDx=0;exitDy=0;entryX=0.500;entryY=1.000;entryDx=0;entryDy=0;">
      <mxGeometry width="50" height="50" relative="1" as="geometry">
        <Array as="points">
          <mxPoint x="-540" y="1104" />
          <mxPoint x="-246" y="1104" />
        </Array>
      </mxGeometry>
    </mxCell>
    <mxCell id="edge2" edge="1" value="" parent="1" source="node2" target="node3" style="html=1;rounded=1;edgeStyle=orthogonalEdgeStyle;dashed=0;startArrow=block;startSize=12;endArrow=none;strokeColor=#595959;exitX=0.352;exitY=0.000;exitDx=0;exitDy=0;entryX=0.500;entryY=1.000;entryDx=0;entryDy=0;">
      <mxGeometry width="50" height="50" relative="1" as="geometry">
        <Array as="points">
          <mxPoint x="-732" y="1104" />
          <mxPoint x="-1327" y="1104" />
        </Array>
      </mxGeometry>
    </mxCell>
    <mxCell id="edge10" edge="1" value="" parent="1" source="node9" target="node1" style="html=1;rounded=1;edgeStyle=orthogonalEdgeStyle;dashed=0;startArrow=block;startSize=12;endArrow=none;strokeColor=#595959;exitX=0.580;exitY=0.000;exitDx=0;exitDy=0;entryX=0.500;entryY=1.000;entryDx=0;entryDy=0;">
      <mxGeometry width="50" height="50" relative="1" as="geometry">
        <Array as="points">
          <mxPoint x="-1144" y="1104" />
          <mxPoint x="-590" y="1104" />
        </Array>
      </mxGeometry>
    </mxCell>
    <mxCell id="edge5" edge="1" value="" parent="1" source="node9" target="node3" style="html=1;rounded=1;edgeStyle=orthogonalEdgeStyle;dashed=0;startArrow=block;startSize=12;endArrow=none;strokeColor=#595959;exitX=0.532;exitY=0.000;exitDx=0;exitDy=0;entryX=0.500;entryY=1.000;entryDx=0;entryDy=0;">
      <mxGeometry width="50" height="50" relative="1" as="geometry">
        <Array as="points">
          <mxPoint x="-1161" y="1104" />
          <mxPoint x="-1327" y="1104" />
        </Array>
      </mxGeometry>
    </mxCell>
    <mxCell id="edge4" edge="1" value="" parent="1" source="node3" target="node4" style="html=1;rounded=1;edgeStyle=orthogonalEdgeStyle;dashed=0;startArrow=block;startSize=12;endArrow=none;strokeColor=#595959;exitX=0.500;exitY=0.000;exitDx=0;exitDy=0;entryX=0.500;entryY=1.000;entryDx=0;entryDy=0;">
      <mxGeometry width="50" height="50" relative="1" as="geometry">
        <Array as="points" />
      </mxGeometry>
    </mxCell>
  </root>
</mxGraphModel>